<svg width="23" height="21" viewBox="0 0 23 21" fill="none" xmlns="http://www.w3.org/2000/svg">
<path fill-rule="evenodd" clip-rule="evenodd" d="M19.1405 0.540383C21.0383 0.572208 22.5146 2.20059 22.3607 4.09238L21.1396 19.1065C21.0661 20.011 20.2733 20.6845 19.3688 20.611C18.4644 20.5374 17.7908 19.7446 17.8644 18.8402L19.0854 3.82601L4.02561 3.57346C3.11831 3.55824 2.39514 2.8104 2.41035 1.9031C2.42557 0.995796 3.17341 0.272618 4.08071 0.287833L19.1405 0.540383Z" fill="black"/>
<path fill-rule="evenodd" clip-rule="evenodd" d="M3.37252 20.2869L21.2247 4.10421C21.8971 3.49477 21.948 2.45571 21.3386 1.78339C20.7292 1.11107 19.6901 1.0601 19.0178 1.66954L1.16554 17.8522C0.493229 18.4616 0.442257 19.5007 1.0517 20.173C1.66114 20.8453 2.70021 20.8963 3.37252 20.2869Z" fill="black"/>
</svg>
